<?xml version="1.0" encoding="UTF-8" standalone="no"?>
<!DOCTYPE svg PUBLIC "-//W3C//DTD SVG 1.1//EN"
 "http://www.w3.org/Graphics/SVG/1.1/DTD/svg11.dtd">
<!-- Generated by graphviz version 2.40.1 (0)
 -->
<!-- Title: %3 Pages: 1 -->
<svg width="1131pt" height="548pt"
 viewBox="0.00 0.00 1130.77 548.00" xmlns="http://www.w3.org/2000/svg" xmlns:xlink="http://www.w3.org/1999/xlink">
<g id="graph0" class="graph" transform="scale(1 1) rotate(0) translate(4 544)">
<title>%3</title>
<polygon fill="#ffffff" stroke="transparent" points="-4,4 -4,-544 1126.7739,-544 1126.7739,4 -4,4"/>
<!-- [root] aws_autoscaling_group.example (expand) -->
<g id="node1" class="node">
<title>[root] aws_autoscaling_group.example (expand)</title>
<polygon fill="none" stroke="#000000" points="801.7739,-396 553.7739,-396 553.7739,-360 801.7739,-360 801.7739,-396"/>
<text text-anchor="middle" x="677.7739" y="-374.3" font-family="Times,serif" font-size="14.00" fill="#000000">aws_autoscaling_group.example</text>
</g>
<!-- [root] aws_launch_configuration.example (expand) -->
<g id="node2" class="node">
<title>[root] aws_launch_configuration.example (expand)</title>
<polygon fill="none" stroke="#000000" points="1122.7739,-252 854.7739,-252 854.7739,-216 1122.7739,-216 1122.7739,-252"/>
<text text-anchor="middle" x="988.7739" y="-230.3" font-family="Times,serif" font-size="14.00" fill="#000000">aws_launch_configuration.example</text>
</g>
<!-- [root] aws_autoscaling_group.example (expand)&#45;&gt;[root] aws_launch_configuration.example (expand) -->
<g id="edge1" class="edge">
<title>[root] aws_autoscaling_group.example (expand)&#45;&gt;[root] aws_launch_configuration.example (expand)</title>
<path fill="none" stroke="#000000" d="M684.513,-359.6972C693.1281,-338.9588 710.076,-305.744 735.7739,-288 755.4393,-274.4214 802.4745,-262.8005 850.726,-253.8562"/>
<polygon fill="#000000" stroke="#000000" points="851.4926,-257.2744 860.7075,-252.0459 850.2434,-250.3867 851.4926,-257.2744"/>
</g>
<!-- [root] aws_lb_target_group.asg (expand) -->
<g id="node6" class="node">
<title>[root] aws_lb_target_group.asg (expand)</title>
<polygon fill="none" stroke="#000000" points="470.7739,-324 274.7739,-324 274.7739,-288 470.7739,-288 470.7739,-324"/>
<text text-anchor="middle" x="372.7739" y="-302.3" font-family="Times,serif" font-size="14.00" fill="#000000">aws_lb_target_group.asg</text>
</g>
<!-- [root] aws_autoscaling_group.example (expand)&#45;&gt;[root] aws_lb_target_group.asg (expand) -->
<g id="edge2" class="edge">
<title>[root] aws_autoscaling_group.example (expand)&#45;&gt;[root] aws_lb_target_group.asg (expand)</title>
<path fill="none" stroke="#000000" d="M601.2032,-359.9243C557.9757,-349.7198 503.8202,-336.9355 459.0899,-326.3762"/>
<polygon fill="#000000" stroke="#000000" points="459.6482,-322.9119 449.1115,-324.0207 458.0399,-329.7246 459.6482,-322.9119"/>
</g>
<!-- [root] data.aws_subnet_ids.default (expand) -->
<g id="node8" class="node">
<title>[root] data.aws_subnet_ids.default (expand)</title>
<polygon fill="none" stroke="#000000" points="788.7739,-180 568.7739,-180 568.7739,-144 788.7739,-144 788.7739,-180"/>
<text text-anchor="middle" x="678.7739" y="-158.3" font-family="Times,serif" font-size="14.00" fill="#000000">data.aws_subnet_ids.default</text>
</g>
<!-- [root] aws_autoscaling_group.example (expand)&#45;&gt;[root] data.aws_subnet_ids.default (expand) -->
<g id="edge3" class="edge">
<title>[root] aws_autoscaling_group.example (expand)&#45;&gt;[root] data.aws_subnet_ids.default (expand)</title>
<path fill="none" stroke="#000000" d="M677.8575,-359.9555C678.0314,-322.3938 678.4334,-235.5541 678.6424,-190.4103"/>
<polygon fill="#000000" stroke="#000000" points="682.1435,-190.1612 678.6899,-180.1451 675.1436,-190.1287 682.1435,-190.1612"/>
</g>
<!-- [root] aws_security_group.alb (expand) -->
<g id="node7" class="node">
<title>[root] aws_security_group.alb (expand)</title>
<polygon fill="none" stroke="#000000" points="992.7739,-180 806.7739,-180 806.7739,-144 992.7739,-144 992.7739,-180"/>
<text text-anchor="middle" x="899.7739" y="-158.3" font-family="Times,serif" font-size="14.00" fill="#000000">aws_security_group.alb</text>
</g>
<!-- [root] aws_launch_configuration.example (expand)&#45;&gt;[root] aws_security_group.alb (expand) -->
<g id="edge4" class="edge">
<title>[root] aws_launch_configuration.example (expand)&#45;&gt;[root] aws_security_group.alb (expand)</title>
<path fill="none" stroke="#000000" d="M966.3155,-215.8314C955.3534,-206.9632 942.004,-196.1637 930.1474,-186.5718"/>
<polygon fill="#000000" stroke="#000000" points="932.201,-183.7313 922.2252,-180.1628 927.7984,-189.1734 932.201,-183.7313"/>
</g>
<!-- [root] aws_lb.example (expand) -->
<g id="node3" class="node">
<title>[root] aws_lb.example (expand)</title>
<polygon fill="none" stroke="#000000" points="836.7739,-252 706.7739,-252 706.7739,-216 836.7739,-216 836.7739,-252"/>
<text text-anchor="middle" x="771.7739" y="-230.3" font-family="Times,serif" font-size="14.00" fill="#000000">aws_lb.example</text>
</g>
<!-- [root] aws_lb.example (expand)&#45;&gt;[root] aws_security_group.alb (expand) -->
<g id="edge5" class="edge">
<title>[root] aws_lb.example (expand)&#45;&gt;[root] aws_security_group.alb (expand)</title>
<path fill="none" stroke="#000000" d="M804.0737,-215.8314C820.5973,-206.5368 840.8925,-195.1208 858.5346,-185.1971"/>
<polygon fill="#000000" stroke="#000000" points="860.4846,-188.116 867.4845,-180.1628 857.0528,-182.015 860.4846,-188.116"/>
</g>
<!-- [root] aws_lb.example (expand)&#45;&gt;[root] data.aws_subnet_ids.default (expand) -->
<g id="edge6" class="edge">
<title>[root] aws_lb.example (expand)&#45;&gt;[root] data.aws_subnet_ids.default (expand)</title>
<path fill="none" stroke="#000000" d="M748.3061,-215.8314C736.7413,-206.8779 722.6335,-195.9558 710.1556,-186.2955"/>
<polygon fill="#000000" stroke="#000000" points="712.2841,-183.5171 702.2343,-180.1628 707.9989,-189.0521 712.2841,-183.5171"/>
</g>
<!-- [root] aws_lb_listener.http (expand) -->
<g id="node4" class="node">
<title>[root] aws_lb_listener.http (expand)</title>
<polygon fill="none" stroke="#000000" points="650.2739,-324 489.2739,-324 489.2739,-288 650.2739,-288 650.2739,-324"/>
<text text-anchor="middle" x="569.7739" y="-302.3" font-family="Times,serif" font-size="14.00" fill="#000000">aws_lb_listener.http</text>
</g>
<!-- [root] aws_lb_listener.http (expand)&#45;&gt;[root] aws_lb.example (expand) -->
<g id="edge7" class="edge">
<title>[root] aws_lb_listener.http (expand)&#45;&gt;[root] aws_lb.example (expand)</title>
<path fill="none" stroke="#000000" d="M620.4863,-287.9243C648.1009,-278.0815 682.449,-265.8386 711.434,-255.5073"/>
<polygon fill="#000000" stroke="#000000" points="712.7963,-258.7375 721.0407,-252.0831 710.446,-252.1438 712.7963,-258.7375"/>
</g>
<!-- [root] aws_lb_listener_rule.asg (expand) -->
<g id="node5" class="node">
<title>[root] aws_lb_listener_rule.asg (expand)</title>
<polygon fill="none" stroke="#000000" points="502.2739,-396 309.2739,-396 309.2739,-360 502.2739,-360 502.2739,-396"/>
<text text-anchor="middle" x="405.7739" y="-374.3" font-family="Times,serif" font-size="14.00" fill="#000000">aws_lb_listener_rule.asg</text>
</g>
<!-- [root] aws_lb_listener_rule.asg (expand)&#45;&gt;[root] aws_lb_listener.http (expand) -->
<g id="edge8" class="edge">
<title>[root] aws_lb_listener_rule.asg (expand)&#45;&gt;[root] aws_lb_listener.http (expand)</title>
<path fill="none" stroke="#000000" d="M447.1581,-359.8314C469.0921,-350.2018 496.2132,-338.295 519.367,-328.1299"/>
<polygon fill="#000000" stroke="#000000" points="520.9379,-331.2627 528.6874,-324.038 518.124,-324.8532 520.9379,-331.2627"/>
</g>
<!-- [root] aws_lb_listener_rule.asg (expand)&#45;&gt;[root] aws_lb_target_group.asg (expand) -->
<g id="edge9" class="edge">
<title>[root] aws_lb_listener_rule.asg (expand)&#45;&gt;[root] aws_lb_target_group.asg (expand)</title>
<path fill="none" stroke="#000000" d="M397.4466,-359.8314C393.8009,-351.8771 389.4431,-342.369 385.4112,-333.5723"/>
<polygon fill="#000000" stroke="#000000" points="388.5617,-332.0456 381.2133,-324.4133 382.1982,-334.9622 388.5617,-332.0456"/>
</g>
<!-- [root] data.aws_vpc.default (expand) -->
<g id="node9" class="node">
<title>[root] data.aws_vpc.default (expand)</title>
<polygon fill="none" stroke="#000000" points="762.7739,-108 594.7739,-108 594.7739,-72 762.7739,-72 762.7739,-108"/>
<text text-anchor="middle" x="678.7739" y="-86.3" font-family="Times,serif" font-size="14.00" fill="#000000">data.aws_vpc.default</text>
</g>
<!-- [root] aws_lb_target_group.asg (expand)&#45;&gt;[root] data.aws_vpc.default (expand) -->
<g id="edge10" class="edge">
<title>[root] aws_lb_target_group.asg (expand)&#45;&gt;[root] data.aws_vpc.default (expand)</title>
<path fill="none" stroke="#000000" d="M371.9688,-287.7187C372.0643,-267.9235 375.1527,-236.4458 391.7739,-216 439.851,-156.8603 521.2286,-124.717 585.0778,-107.7323"/>
<polygon fill="#000000" stroke="#000000" points="585.9558,-111.1204 594.7654,-105.2348 584.2082,-104.3421 585.9558,-111.1204"/>
</g>
<!-- [root] var.server_port -->
<g id="node12" class="node">
<title>[root] var.server_port</title>
<polygon fill="none" stroke="#000000" points="520.7739,-252 400.7739,-252 400.7739,-216 526.7739,-216 526.7739,-246 520.7739,-252"/>
<polyline fill="none" stroke="#000000" points="520.7739,-252 520.7739,-246 "/>
<polyline fill="none" stroke="#000000" points="526.7739,-246 520.7739,-246 "/>
<text text-anchor="middle" x="463.7739" y="-230.3" font-family="Times,serif" font-size="14.00" fill="#000000">var.server_port</text>
</g>
<!-- [root] aws_lb_target_group.asg (expand)&#45;&gt;[root] var.server_port -->
<g id="edge11" class="edge">
<title>[root] aws_lb_target_group.asg (expand)&#45;&gt;[root] var.server_port</title>
<path fill="none" stroke="#000000" d="M395.7371,-287.8314C406.9454,-278.9632 420.5948,-268.1637 432.7179,-258.5718"/>
<polygon fill="#000000" stroke="#000000" points="435.1476,-261.1125 440.8181,-252.1628 430.8042,-255.6229 435.1476,-261.1125"/>
</g>
<!-- [root] provider[&quot;registry.terraform.io/hashicorp/aws&quot;] -->
<g id="node11" class="node">
<title>[root] provider[&quot;registry.terraform.io/hashicorp/aws&quot;]</title>
<polygon fill="none" stroke="#000000" points="734.7739,-36 407.3338,-18 734.7739,0 1062.214,-18 734.7739,-36"/>
<text text-anchor="middle" x="734.7739" y="-14.3" font-family="Times,serif" font-size="14.00" fill="#000000">provider[&quot;registry.terraform.io/hashicorp/aws&quot;]</text>
</g>
<!-- [root] aws_security_group.alb (expand)&#45;&gt;[root] provider[&quot;registry.terraform.io/hashicorp/aws&quot;] -->
<g id="edge12" class="edge">
<title>[root] aws_security_group.alb (expand)&#45;&gt;[root] provider[&quot;registry.terraform.io/hashicorp/aws&quot;]</title>
<path fill="none" stroke="#000000" d="M878.8766,-143.7623C849.2179,-117.8784 794.8813,-70.4573 762.0708,-41.8227"/>
<polygon fill="#000000" stroke="#000000" points="764.0567,-38.9104 754.221,-34.972 759.4539,-44.1844 764.0567,-38.9104"/>
</g>
<!-- [root] data.aws_subnet_ids.default (expand)&#45;&gt;[root] data.aws_vpc.default (expand) -->
<g id="edge13" class="edge">
<title>[root] data.aws_subnet_ids.default (expand)&#45;&gt;[root] data.aws_vpc.default (expand)</title>
<path fill="none" stroke="#000000" d="M678.7739,-143.8314C678.7739,-136.131 678.7739,-126.9743 678.7739,-118.4166"/>
<polygon fill="#000000" stroke="#000000" points="682.274,-118.4132 678.7739,-108.4133 675.274,-118.4133 682.274,-118.4132"/>
</g>
<!-- [root] data.aws_vpc.default (expand)&#45;&gt;[root] provider[&quot;registry.terraform.io/hashicorp/aws&quot;] -->
<g id="edge14" class="edge">
<title>[root] data.aws_vpc.default (expand)&#45;&gt;[root] provider[&quot;registry.terraform.io/hashicorp/aws&quot;]</title>
<path fill="none" stroke="#000000" d="M692.9051,-71.8314C699.6213,-63.1962 707.7618,-52.7299 715.0725,-43.3304"/>
<polygon fill="#000000" stroke="#000000" points="717.8501,-45.4601 721.2268,-35.4177 712.3246,-41.1624 717.8501,-45.4601"/>
</g>
<!-- [root] output.alb_dns_name -->
<g id="node10" class="node">
<title>[root] output.alb_dns_name</title>
<polygon fill="none" stroke="#000000" points="908.7739,-324 744.7739,-324 744.7739,-288 914.7739,-288 914.7739,-318 908.7739,-324"/>
<polyline fill="none" stroke="#000000" points="908.7739,-324 908.7739,-318 "/>
<polyline fill="none" stroke="#000000" points="914.7739,-318 908.7739,-318 "/>
<text text-anchor="middle" x="829.7739" y="-302.3" font-family="Times,serif" font-size="14.00" fill="#000000">output.alb_dns_name</text>
</g>
<!-- [root] output.alb_dns_name&#45;&gt;[root] aws_lb.example (expand) -->
<g id="edge18" class="edge">
<title>[root] output.alb_dns_name&#45;&gt;[root] aws_lb.example (expand)</title>
<path fill="none" stroke="#000000" d="M815.1381,-287.8314C808.4578,-279.5386 800.4171,-269.557 793.0836,-260.4533"/>
<polygon fill="#000000" stroke="#000000" points="795.6058,-258.0052 786.6068,-252.4133 790.1545,-262.3965 795.6058,-258.0052"/>
</g>
<!-- [root] meta.count&#45;boundary (EachMode fixup) -->
<g id="node13" class="node">
<title>[root] meta.count&#45;boundary (EachMode fixup)</title>
<ellipse fill="none" stroke="#000000" cx="829.7739" cy="-450" rx="224.4604" ry="18"/>
<text text-anchor="middle" x="829.7739" y="-446.3" font-family="Times,serif" font-size="14.00" fill="#000000">[root] meta.count&#45;boundary (EachMode fixup)</text>
</g>
<!-- [root] meta.count&#45;boundary (EachMode fixup)&#45;&gt;[root] aws_autoscaling_group.example (expand) -->
<g id="edge15" class="edge">
<title>[root] meta.count&#45;boundary (EachMode fixup)&#45;&gt;[root] aws_autoscaling_group.example (expand)</title>
<path fill="none" stroke="#000000" d="M792.2009,-432.2022C771.9836,-422.6256 746.843,-410.7169 725.2805,-400.5031"/>
<polygon fill="#000000" stroke="#000000" points="726.5062,-397.211 715.9705,-396.0931 723.5096,-403.5371 726.5062,-397.211"/>
</g>
<!-- [root] meta.count&#45;boundary (EachMode fixup)&#45;&gt;[root] aws_lb_listener_rule.asg (expand) -->
<g id="edge16" class="edge">
<title>[root] meta.count&#45;boundary (EachMode fixup)&#45;&gt;[root] aws_lb_listener_rule.asg (expand)</title>
<path fill="none" stroke="#000000" d="M733.8267,-433.7071C667.9334,-422.5176 580.4193,-407.6568 512.3535,-396.0984"/>
<polygon fill="#000000" stroke="#000000" points="512.9019,-392.6415 502.457,-394.4179 511.7299,-399.5427 512.9019,-392.6415"/>
</g>
<!-- [root] meta.count&#45;boundary (EachMode fixup)&#45;&gt;[root] output.alb_dns_name -->
<g id="edge17" class="edge">
<title>[root] meta.count&#45;boundary (EachMode fixup)&#45;&gt;[root] output.alb_dns_name</title>
<path fill="none" stroke="#000000" d="M829.7739,-431.7623C829.7739,-407.201 829.7739,-363.2474 829.7739,-334.3541"/>
<polygon fill="#000000" stroke="#000000" points="833.274,-334.0896 829.7739,-324.0896 826.274,-334.0897 833.274,-334.0896"/>
</g>
<!-- [root] provider[&quot;registry.terraform.io/hashicorp/aws&quot;] (close) -->
<g id="node14" class="node">
<title>[root] provider[&quot;registry.terraform.io/hashicorp/aws&quot;] (close)</title>
<ellipse fill="none" stroke="#000000" cx="293.7739" cy="-450" rx="293.548" ry="18"/>
<text text-anchor="middle" x="293.7739" y="-446.3" font-family="Times,serif" font-size="14.00" fill="#000000">[root] provider[&quot;registry.terraform.io/hashicorp/aws&quot;] (close)</text>
</g>
<!-- [root] provider[&quot;registry.terraform.io/hashicorp/aws&quot;] (close)&#45;&gt;[root] aws_autoscaling_group.example (expand) -->
<g id="edge19" class="edge">
<title>[root] provider[&quot;registry.terraform.io/hashicorp/aws&quot;] (close)&#45;&gt;[root] aws_autoscaling_group.example (expand)</title>
<path fill="none" stroke="#000000" d="M385.2636,-432.8457C441.2543,-422.3474 513.1265,-408.8714 571.6155,-397.9047"/>
<polygon fill="#000000" stroke="#000000" points="572.4427,-401.3107 581.6264,-396.0277 571.1527,-394.4306 572.4427,-401.3107"/>
</g>
<!-- [root] provider[&quot;registry.terraform.io/hashicorp/aws&quot;] (close)&#45;&gt;[root] aws_lb_listener_rule.asg (expand) -->
<g id="edge20" class="edge">
<title>[root] provider[&quot;registry.terraform.io/hashicorp/aws&quot;] (close)&#45;&gt;[root] aws_lb_listener_rule.asg (expand)</title>
<path fill="none" stroke="#000000" d="M321.7474,-432.0171C336.0462,-422.825 353.6296,-411.5213 369.0096,-401.6342"/>
<polygon fill="#000000" stroke="#000000" points="371.2498,-404.3549 377.769,-396.0032 367.4645,-398.4667 371.2498,-404.3549"/>
</g>
<!-- [root] root -->
<g id="node15" class="node">
<title>[root] root</title>
<ellipse fill="none" stroke="#000000" cx="561.7739" cy="-522" rx="58.4896" ry="18"/>
<text text-anchor="middle" x="561.7739" y="-518.3" font-family="Times,serif" font-size="14.00" fill="#000000">[root] root</text>
</g>
<!-- [root] root&#45;&gt;[root] meta.count&#45;boundary (EachMode fixup) -->
<g id="edge21" class="edge">
<title>[root] root&#45;&gt;[root] meta.count&#45;boundary (EachMode fixup)</title>
<path fill="none" stroke="#000000" d="M606.0287,-510.1107C646.6426,-499.1995 707.6128,-482.8194 755.6551,-469.9125"/>
<polygon fill="#000000" stroke="#000000" points="756.6401,-473.2721 765.3895,-467.2973 754.8238,-466.5118 756.6401,-473.2721"/>
</g>
<!-- [root] root&#45;&gt;[root] provider[&quot;registry.terraform.io/hashicorp/aws&quot;] (close) -->
<g id="edge22" class="edge">
<title>[root] root&#45;&gt;[root] provider[&quot;registry.terraform.io/hashicorp/aws&quot;] (close)</title>
<path fill="none" stroke="#000000" d="M517.5192,-510.1107C477.1835,-499.2742 416.7693,-483.0435 368.8818,-470.1782"/>
<polygon fill="#000000" stroke="#000000" points="369.7391,-466.7845 359.1734,-467.57 367.9228,-473.5448 369.7391,-466.7845"/>
</g>
</g>
</svg>
